# xmcd
#
# Track frame offsets:
#	182
#	4120
#	21255
#	36312
#	54240
#	95910
#	112937
#	130022
#	146165
#	167310
#	178815
#	185112
#
# Disc length: 2704 seconds
#
# Revision: 0
# Processed by: cddbd v1.5.2PL0 Copyright (c) Steve Scherf et al.
# Submitted via: audiograbber 1.83.01
#
DISCID=a10a8e0c
DTITLE=Austin deLone - DeLone At Last
DYEAR=1991
DGENRE=Rock
TTITLE0=Blithe'd Ale Boogie
TTITLE1=Deeper Well
TTITLE2=Little Bitty Record (w/ a Great Big Hole)
TTITLE3=Big Big Fun
TTITLE4=Visions of Johanna
TTITLE5=No Money
TTITLE6=Done Doin' Good
TTITLE7=The Beaver Strut
TTITLE8=Louise
TTITLE9=My Baby, My Baby
TTITLE10=Put Your Wig Back On
TTITLE11=For Lesley
EXTD=
EXTT0=
EXTT1=
EXTT2=
EXTT3=
EXTT4=
EXTT5=
EXTT6=
EXTT7=
EXTT8=
EXTT9=
EXTT10=
EXTT11=
PLAYORDER=
